<?xml version="1.0" encoding="utf-8"?>
<svg width="82.206001mm" height="33.84mm" viewBox="0 0 82.206001 33.84" version="1.1" id="svg8" xmlns="http://www.w3.org/2000/svg">
  <g id="layer1" transform="matrix(0.99952, 0, 0, 1, 0, -263.160004)" style="">
    <g id="g1527" transform="matrix(0.26458333,0,0,0.26458333,110.84341,103.94299)">
      <g id="g1431"/>
      <g id="g1683" transform="translate(-418.93573,601.7643)">
        <g id="g1411">
          <path style="fill-opacity: 1;" d="m 136.4,16.4 h 3.1 v 15.5 c 0,4 -2.9,8.1 -9.3,8.1 -5.8,0 -9.3,-3 -9.3,-7.9 V 16.4 h 3.5 v 15.2 c 0,4 1.9,5.8 6.1,5.8 4.1,0 5.9,-2.9 5.9,-5.8 z" id="path1387"/>
          <path style="fill-opacity: 1;" d="m 149.4,16.4 h -3 v 23.1 h 3 V 21.9 l 13.8,17.7 h 3.2 V 16.4 h -3 v 17.9 z" id="path1389"/>
          <path style="fill-opacity: 1;" d="m 177.4,16.4 v 23.1 h -3.5 V 16.4 Z" id="path1391"/>
          <path style="fill-opacity: 1;" d="m 182.3,16.4 h 3.5 l 5.7,17.3 6.3,-17.3 h 3 L 192,39.5 h -1.8 z" id="path1393"/>
          <path style="fill-opacity: 1;" d="m 219.2,16.4 v 2.4 H 209 v 7.5 h 8.2 v 2.4 H 209 V 37 h 10.3 v 2.5 H 205.5 V 16.4 Z" id="path1395"/>
          <path style="fill-opacity: 1;" d="m 234.6,28.7 0.4,-0.1 c 1.8,-0.5 4.4,-3.2 4.4,-6.3 0,-2.8 -2.6,-5.8 -8.2,-5.8 h -6.3 v 23.1 h 3.5 v -21 h 2.5 c 3.7,0 5.1,2.1 5.1,4 0,1.9 -1.6,4.7 -5.1,4.7 0,0 -0.6,0 -0.9,0 l 7.8,12.3 h 4.1 z" id="path1397"/>
          <path style="fill-opacity: 1;" d="m 255.9,34.1 c 0,-2.2 -2.1,-3.4 -4.4,-4.9 l -0.8,-0.5 c -2.6,-1.6 -5.5,-3.6 -5.5,-6.9 0,-3.4 3,-5.9 6.9,-5.9 3.4,0 5.3,0.8 6.1,1.2 -0.1,0.2 -0.9,2.1 -1,2.3 -0.8,-0.4 -2.4,-1 -4.6,-1 -2.5,0 -4.1,1.1 -4.1,2.9 0,2.1 1.8,3.2 4,4.6 l 1,0.6 c 0,0 0.1,0.1 0.1,0.1 2.3,1.5 5.8,3.7 5.8,6.8 0,3.9 -4.2,6.6 -8.1,6.6 -3.8,0 -5.9,-1.1 -6.9,-1.5 0.1,-0.2 0.9,-2 1,-2.2 0,0 0,0 0,0 1,0.5 2.9,1.3 5.9,1.3 2.7,-0.1 4.6,-1.6 4.6,-3.5 z" id="path1399"/>
          <path style="fill-opacity: 1;" d="m 269,16.4 v 23.1 h -3.5 V 16.4 Z" id="path1401"/>
          <path style="fill-opacity: 1;" d="m 292.2,16.4 v 2.4 h -7.5 v 20.7 h -3.5 V 18.9 h -7.6 v -2.4 z" id="path1403"/>
          <g id="g1409">
            <path style="fill-opacity: 1;" d="m 300.2,18.9 v 7.5 h 8.2 v 2.4 h -8.2 v 8.3 c 0,0 10,0 10.3,0 v 2.5 H 296.7 V 16.4 h 13.8 v 2.4 z" id="path1405"/>
            <path style="fill-opacity: 1;" d="m 307.1,8.7 1.4,2 -5.9,3.2 -0.8,-1.3 z" id="path1407"/>
          </g>
        </g>
        <g id="g1419">
          <path style="fill-opacity: 1;" d="m 223.7,48.7 v 0.2 c 4.9,1.9 2.2,8.2 0.1,13.6 L 213,89.9 197.2,48.7 h -10.6 v 0.2 c 3.1,2.4 4.7,7 6.2,10.9 l 15.1,39 h 7.6 l 20.1,-50.2 z" id="path1413"/>
          <path style="fill-opacity: 1;" d="m 310.5,91.4 c -2.9,1.3 -6.1,2 -9.7,2 H 290 V 48.7 h -11.7 v 0.2 c 3.7,1.3 3.6,7 3.6,10.5 V 98.6 C 278,96.7 276,92.1 274.1,87.8 L 257.5,48.7 h -12.6 v 0.2 c 3.8,1.1 2.3,4.3 1.2,7.1 l -13.3,31.8 c -1.8,4.3 -3.7,8.8 -7.7,10.8 v 0.2 h 10 l 5.1,-13.3 h 24.5 l 5.3,13.3 h 40.7 z M 242.3,80 252.2,55.2 262.3,80 Z" id="path1415"/>
          <path style="fill-opacity: 1;" d="M 190.9,87.8 174.3,48.7 h -12.6 v 0.2 c 3.8,1.1 2.3,4.3 1.2,7.1 v 0 0 l -13.3,31.8 c -0.7,1.6 -1.3,3.2 -2.1,4.7 -1.9,0.6 -4,0.9 -6.1,0.9 H 130.6 V 48.7 h -11.7 v 0.2 c 3.7,1.2 3.6,7 3.6,10.5 V 98.8 H 152 l 5.1,-13.3 h 24.4 v 0 l 5.3,13.3 h 12 v -0.2 c -4.2,-2 -6,-6.4 -7.9,-10.8 z M 159.1,80 169,55.2 179.2,80 Z" id="path1417"/>
        </g>
        <path style="fill:#000000;fill-opacity:1" d="m 0,0 v 100 c 0,8.6 6.6,15.3 15.1,15.3 h 23.8 c 3.2,0 7.3,2.1 9.4,8.2 l 1.2,3.3 c 0.3,0.7 0.7,1.1 1.1,1.1 0.5,0 0.9,-0.4 1.1,-1.1 l 1.2,-3.3 c 2.1,-6 6.2,-8.2 9.4,-8.2 h 23.8 c 8.5,0 15.1,-6.7 15.1,-15.3 V 0 Z" id="path1421"/>
        <rect style="fill:#eb1a21" x="2.4000001" y="2.4000001" width="39.099998" height="46.299999" id="rect1423" transform="translate(-2.8346458e-6,4.7244094e-6)"/>
        <path style="fill:#eb1a21" d="M 2.4,66.6 V 100 c 0,7.5 5.8,12.9 12.7,12.9 0,0 23.7,0 23.8,0 0.9,0 1.8,0.1 2.7,0.4 V 66.6 Z" id="path1425" transform="translate(-2.8346458e-6,4.7244094e-6)"/>
        <rect style="fill:#eb1a21" x="59.5" y="2.4000001" width="39.099998" height="46.299999" id="rect1427" transform="translate(-2.8346458e-6,4.7244094e-6)"/>
        <path style="fill:#eb1a21" d="m 59.5,113.3 c 0.9,-0.3 1.8,-0.4 2.7,-0.4 0,0 23.8,0 23.8,0 6.9,0 12.7,-5.4 12.7,-12.9 V 66.6 H 59.5 Z" id="path1429" transform="translate(-2.8346458e-6,4.7244094e-6)"/>
        <path style="fill:#ffc40a" d="M 59.5,48.7 V 2.4 h -18 V 48.7 H 2.4 v 17.9 h 39.1 v 46.7 c 3.4,1 7,3.8 9,9.4 1.9,-5.6 5.6,-8.4 9,-9.4 V 66.6 H 98.6 V 48.7 Z" id="path1433"/>
        <g id="g1467">
          <path d="m 16.9,21.5 c 0.1,0.3 -0.1,0.5 -0.3,0.6 -0.4,0.2 -1.6,0.3 -2,0.1 0,0 -0.6,1.1 -1.5,1.1 -0.9,0 -1.5,-1.1 -1.5,-1.1 C 11.2,22.3 10,22.3 9.5,22.1 9.3,22 9.1,21.8 9.2,21.5 c 0.2,-1 1,-4 1.3,-5.1 L 8.9,17 C 8.6,18.2 7.8,20.2 6.3,20.3 6.1,20.3 5.8,20.2 5.8,20 6,18.4 7,10.9 7.1,10.2 7.2,9.5 7.4,9.2 7.9,9 8.4,8.8 8.7,9 9.3,9.4 c 0.4,0.4 1.9,1.7 1.9,1.7 0,0 0.2,-1.2 0.2,-1.6 -0.2,0 -0.4,0 -0.4,0 -0.2,0 -0.4,-0.2 -0.4,-0.4 L 10.8,7.6 C 10.8,7.4 10.9,7.3 11,7.3 11,7.3 11.6,7 12.1,6.8 12.6,6.6 13,6.6 13,6.6 c 0.4,0 0.7,0.1 1,0.3 0.3,0.2 0.5,0.6 0.5,1 l 0.3,3.2 c 0,0 1.4,-1.3 1.8,-1.7 0.7,-0.4 1,-0.6 1.5,-0.4 0.5,0.2 0.7,0.5 0.8,1.2 0.1,0.7 1.1,8.2 1.3,9.8 0,0.2 -0.3,0.3 -0.5,0.3 -1.5,-0.1 -2.3,-2.1 -2.6,-3.3 l -1.6,-0.6 c 0.3,1.1 1.1,4.2 1.4,5.1 z" id="path1435"/>
          <path d="m 34.8,21.5 c 0.1,0.3 -0.1,0.5 -0.3,0.6 -0.4,0.2 -1.6,0.3 -2,0.1 0,0 -0.6,1.1 -1.5,1.1 -0.9,0 -1.5,-1.1 -1.5,-1.1 -0.5,0.1 -1.6,0.1 -2,-0.1 -0.2,-0.1 -0.4,-0.3 -0.3,-0.6 0.2,-1 1,-4 1.3,-5.1 L 26.8,17 c -0.3,1.2 -1.1,3.2 -2.6,3.3 -0.2,0 -0.5,-0.1 -0.5,-0.3 0.2,-1.6 1.2,-9.1 1.3,-9.8 0.1,-0.7 0.3,-1 0.8,-1.2 0.5,-0.2 0.8,0 1.4,0.4 0.4,0.4 1.9,1.7 1.9,1.7 0,0 0.2,-1.2 0.2,-1.6 -0.2,0 -0.4,0 -0.4,0 -0.2,0 -0.4,-0.2 -0.4,-0.4 l 0.2,-1.5 c 0,-0.2 0.1,-0.3 0.2,-0.3 0,0 0.6,-0.3 1.1,-0.5 0.5,-0.2 0.9,-0.2 0.9,-0.2 0.4,0 0.7,0.1 1,0.3 0.3,0.2 0.5,0.6 0.5,1 l 0.3,3.2 c 0,0 1.5,-1.3 1.8,-1.7 C 35.2,9 35.6,8.9 36,9 c 0.5,0.2 0.7,0.5 0.8,1.2 0.1,0.7 1.1,8.2 1.3,9.8 0,0.2 -0.3,0.3 -0.5,0.3 C 36.1,20.2 35.3,18.2 35,17 l -1.6,-0.6 c 0.3,1.1 1.1,4.2 1.4,5.1 z" id="path1437"/>
          <path d="m 16.9,42.7 c 0.1,0.3 -0.1,0.5 -0.3,0.6 -0.4,0.2 -1.6,0.3 -2,0.2 0,0 -0.6,1.1 -1.5,1.1 -0.9,0 -1.5,-1.1 -1.5,-1.1 C 11.2,43.7 10,43.6 9.5,43.3 9.3,43.2 9.1,43 9.2,42.7 c 0.2,-1 1,-4 1.3,-5.1 L 8.9,38.2 C 8.6,39.4 7.8,41.4 6.3,41.5 6.1,41.5 5.8,41.4 5.8,41.2 6,39.5 7,32 7.1,31.3 c 0.1,-0.7 0.3,-1 0.8,-1.2 0.5,-0.2 0.8,0 1.4,0.4 0.4,0.4 1.9,1.7 1.9,1.7 0,0 0.2,-1.2 0.2,-1.6 -0.2,0 -0.4,0 -0.4,0 -0.2,0 -0.4,-0.2 -0.4,-0.4 l 0.2,-1.5 c 0,-0.1 0.1,-0.3 0.2,-0.4 0,0 0.6,-0.3 1.1,-0.5 0.5,-0.2 0.9,-0.2 0.9,-0.2 0.4,0 0.7,0.1 1,0.3 0.3,0.2 0.5,0.6 0.5,1 l 0.3,3.2 c 0,0 1.4,-1.4 1.8,-1.7 0.5,-0.5 0.9,-0.6 1.4,-0.4 0.5,0.2 0.7,0.5 0.8,1.2 0.1,0.7 1.1,8.2 1.3,9.8 0,0.2 -0.3,0.3 -0.5,0.3 C 18.1,41.2 17.3,39.2 17,38 l -1.6,-0.6 c 0.4,1.2 1.2,4.3 1.5,5.3 z" id="path1439"/>
          <path d="m 34.8,42.7 c 0.1,0.3 -0.1,0.5 -0.3,0.6 -0.4,0.2 -1.6,0.3 -2,0.2 0,0 -0.6,1.1 -1.5,1.1 -0.9,0 -1.5,-1.1 -1.5,-1.1 -0.5,0.2 -1.6,0.1 -2,-0.2 -0.2,-0.1 -0.4,-0.3 -0.3,-0.6 0.2,-1 1,-4 1.3,-5.1 l -1.6,0.6 c -0.3,1.2 -1.1,3.2 -2.6,3.3 -0.2,0 -0.5,-0.1 -0.5,-0.3 0.2,-1.7 1.2,-9.1 1.3,-9.8 0.1,-0.7 0.3,-1 0.8,-1.2 0.5,-0.2 0.8,0 1.4,0.4 0.4,0.4 1.9,1.7 1.9,1.7 0,0 0.2,-1.2 0.2,-1.6 -0.2,0 -0.4,0 -0.4,0 -0.2,0 -0.4,-0.2 -0.4,-0.4 l 0.2,-1.5 c 0,-0.1 0.1,-0.3 0.2,-0.4 0,0 0.6,-0.3 1.1,-0.5 0.5,-0.2 0.9,-0.2 0.9,-0.2 0.4,0 0.7,0.1 1,0.3 0.3,0.2 0.5,0.6 0.5,1 l 0.3,3.2 c 0,0 1.5,-1.4 1.8,-1.7 0.5,-0.5 0.9,-0.6 1.4,-0.4 0.5,0.2 0.7,0.5 0.8,1.2 0.1,0.7 1.1,8.2 1.3,9.8 0,0.2 -0.3,0.3 -0.5,0.3 -1.5,-0.1 -2.3,-2.1 -2.6,-3.3 l -1.6,-0.6 c 0.3,1.1 1.1,4.2 1.4,5.2 z" id="path1441"/>
          <path d="m 73.9,21.5 c 0.1,0.3 -0.1,0.5 -0.3,0.6 -0.4,0.2 -1.6,0.3 -2,0.1 0,0 -0.6,1.1 -1.5,1.1 -0.9,0 -1.5,-1.1 -1.5,-1.1 -0.4,0.1 -1.6,0.1 -2,-0.1 -0.2,-0.1 -0.4,-0.3 -0.3,-0.6 0.2,-1 1,-4 1.3,-5.1 L 65.9,17 c -0.3,1.2 -1.1,3.2 -2.6,3.3 -0.2,0 -0.5,-0.1 -0.5,-0.3 0.2,-1.6 1.2,-9.1 1.3,-9.8 0.1,-0.7 0.3,-1 0.8,-1.2 0.5,-0.2 0.8,0 1.4,0.4 0.4,0.4 1.8,1.7 1.8,1.7 0,0 0.2,-1.2 0.2,-1.6 -0.2,0 -0.4,0 -0.4,0 -0.2,0 -0.4,-0.2 -0.4,-0.4 l 0.2,-1.5 c 0,-0.2 0.1,-0.3 0.2,-0.3 0,0 0.6,-0.3 1.2,-0.5 0.5,-0.2 0.9,-0.2 0.9,-0.2 0.4,0 0.7,0.1 1,0.3 0.3,0.2 0.5,0.6 0.5,1 l 0.3,3.2 c 0,0 1.4,-1.3 1.8,-1.7 0.7,-0.4 1.1,-0.5 1.5,-0.4 0.5,0.2 0.7,0.5 0.8,1.2 0.1,0.7 1.1,8.2 1.3,9.8 0,0.2 -0.3,0.3 -0.5,0.3 -1.5,-0.1 -2.3,-2.1 -2.6,-3.3 l -1.6,-0.6 c 0.3,1.1 1.1,4.2 1.4,5.1 z" id="path1443"/>
          <path d="m 91.8,21.5 c 0.1,0.3 -0.1,0.5 -0.3,0.6 -0.4,0.2 -1.6,0.3 -2,0.1 0,0 -0.6,1.1 -1.5,1.1 -0.9,0 -1.5,-1.1 -1.5,-1.1 -0.4,0.1 -1.6,0.1 -2.1,-0.1 -0.2,-0.1 -0.4,-0.3 -0.3,-0.6 0.2,-1 1,-4 1.3,-5.1 L 83.9,17 c -0.3,1.2 -1.1,3.2 -2.6,3.3 -0.2,0 -0.5,-0.1 -0.5,-0.3 0.2,-1.6 1.2,-9.1 1.3,-9.8 0.1,-0.7 0.3,-1 0.8,-1.2 0.5,-0.2 0.8,0 1.4,0.4 0.4,0.4 1.8,1.7 1.8,1.7 0,0 0.2,-1.2 0.2,-1.6 -0.2,0 -0.4,0 -0.4,0 -0.2,0 -0.4,-0.2 -0.4,-0.4 l 0.2,-1.5 c 0,-0.2 0.1,-0.3 0.2,-0.3 0,0 0.6,-0.3 1.2,-0.5 0.5,-0.2 0.9,-0.2 0.9,-0.2 0.4,0 0.7,0.1 1,0.3 0.3,0.2 0.5,0.6 0.5,1 l 0.3,3.2 c 0,0 1.4,-1.3 1.8,-1.7 0.6,-0.4 1,-0.6 1.5,-0.4 0.5,0.2 0.7,0.5 0.8,1.2 0.1,0.7 1.1,8.2 1.3,9.8 0,0.2 -0.3,0.3 -0.5,0.3 -1.5,-0.1 -2.3,-2.1 -2.6,-3.3 l -1.6,-0.6 c 0.3,1.1 1.1,4.2 1.3,5.1 z" id="path1445"/>
          <path d="m 73.9,42.7 c 0.1,0.3 -0.1,0.5 -0.3,0.6 -0.4,0.2 -1.6,0.3 -2,0.2 0,0 -0.6,1.1 -1.5,1.1 -0.9,0 -1.5,-1.1 -1.5,-1.1 -0.4,0.2 -1.6,0.1 -2,-0.2 -0.2,-0.1 -0.4,-0.3 -0.3,-0.6 0.2,-1 1,-4 1.3,-5.1 L 66,38.2 c -0.3,1.2 -1.1,3.2 -2.6,3.3 -0.2,0 -0.5,-0.1 -0.5,-0.3 0.2,-1.7 1.2,-9.1 1.3,-9.8 0.1,-0.7 0.3,-1 0.8,-1.2 0.5,-0.2 0.8,0 1.4,0.4 0.4,0.4 1.8,1.7 1.8,1.7 0,0 0.2,-1.2 0.2,-1.6 -0.2,0 -0.4,0 -0.4,0 -0.2,0 -0.4,-0.2 -0.4,-0.4 l 0.2,-1.5 c 0,-0.1 0.1,-0.3 0.2,-0.4 0,0 0.6,-0.3 1.2,-0.5 0.5,-0.2 0.9,-0.2 0.9,-0.2 0.4,0 0.7,0.1 1,0.3 0.3,0.2 0.5,0.6 0.5,1 l 0.3,3.2 c 0,0 1.4,-1.4 1.8,-1.7 0.5,-0.5 0.9,-0.6 1.4,-0.4 0.5,0.2 0.7,0.5 0.8,1.2 0.1,0.7 1.1,8.2 1.3,9.8 0,0.2 -0.3,0.3 -0.5,0.3 -1.5,-0.1 -2.3,-2.1 -2.6,-3.3 l -1.6,-0.6 c 0.3,1.1 1.1,4.2 1.4,5.2 z" id="path1447"/>
          <path d="m 91.8,42.7 c 0.1,0.3 -0.1,0.5 -0.3,0.6 -0.4,0.2 -1.6,0.3 -2,0.2 0,0 -0.6,1.1 -1.5,1.1 -0.9,0 -1.5,-1.1 -1.5,-1.1 -0.4,0.2 -1.6,0.1 -2.1,-0.2 -0.2,-0.1 -0.4,-0.3 -0.3,-0.6 0.2,-1 1,-4 1.3,-5.1 l -1.6,0.6 c -0.3,1.2 -1.1,3.2 -2.6,3.3 -0.2,0 -0.5,-0.1 -0.5,-0.3 0.2,-1.7 1.2,-9.1 1.3,-9.8 0.1,-0.7 0.3,-1 0.8,-1.2 0.5,-0.2 0.8,0 1.4,0.4 0.4,0.4 1.8,1.7 1.8,1.7 0,0 0.2,-1.2 0.2,-1.6 -0.2,0 -0.4,0 -0.4,0 -0.2,0 -0.4,-0.2 -0.4,-0.4 l 0.2,-1.5 c 0,-0.1 0.1,-0.3 0.2,-0.4 0,0 0.6,-0.3 1.2,-0.5 0.5,-0.2 0.9,-0.2 0.9,-0.2 0.4,0 0.7,0.1 1,0.3 0.3,0.2 0.5,0.6 0.5,1 l 0.3,3.2 c 0,0 1.4,-1.4 1.8,-1.7 0.5,-0.5 0.9,-0.6 1.4,-0.4 0.5,0.2 0.7,0.5 0.8,1.2 0.1,0.7 1.1,8.2 1.3,9.8 0,0.2 -0.3,0.3 -0.5,0.3 -1.5,-0.1 -2.3,-2.1 -2.6,-3.3 l -1.6,-0.6 c 0.5,1.1 1.3,4.2 1.5,5.2 z" id="path1449"/>
          <path d="m 16.9,85.7 c 0.1,0.3 -0.1,0.5 -0.3,0.6 -0.4,0.2 -1.6,0.3 -2,0.1 0,0 -0.6,1.1 -1.5,1.1 -0.9,0 -1.5,-1.1 -1.5,-1.1 C 11.2,86.6 10,86.5 9.5,86.3 9.3,86.2 9.1,86 9.2,85.7 c 0.2,-0.9 1,-4 1.3,-5.1 L 8.9,81.2 C 8.6,82.4 7.8,84.4 6.3,84.5 6.1,84.5 5.8,84.4 5.8,84.2 6,82.6 7,75.1 7.1,74.4 c 0.1,-0.7 0.3,-1 0.8,-1.2 0.5,-0.2 0.8,0 1.4,0.4 0.4,0.4 1.9,1.7 1.9,1.7 0,0 0.2,-1.2 0.2,-1.6 -0.2,0 -0.4,0 -0.4,0 -0.2,0 -0.4,-0.2 -0.4,-0.4 l 0.2,-1.5 c 0,-0.2 0.1,-0.3 0.2,-0.3 0,0 0.6,-0.3 1.1,-0.5 0.5,-0.2 0.9,-0.2 0.9,-0.2 0.4,0 0.7,0.1 1,0.3 0.3,0.2 0.5,0.6 0.5,1 l 0.3,3.2 c 0,0 1.4,-1.3 1.8,-1.7 0.5,-0.5 0.9,-0.6 1.4,-0.4 0.5,0.2 0.7,0.5 0.8,1.2 0.1,0.7 1.1,8.2 1.3,9.8 0,0.2 -0.3,0.3 -0.5,0.3 -1.5,-0.1 -2.3,-2.1 -2.6,-3.3 l -1.6,-0.6 c 0.4,1.1 1.2,4.2 1.5,5.1 z" id="path1451"/>
          <path d="m 34.8,85.7 c 0.1,0.3 -0.1,0.5 -0.3,0.6 -0.4,0.2 -1.6,0.3 -2,0.1 0,0 -0.6,1.1 -1.5,1.1 -0.9,0 -1.5,-1.1 -1.5,-1.1 -0.5,0.2 -1.6,0.1 -2,-0.1 -0.2,-0.1 -0.4,-0.3 -0.3,-0.6 0.2,-0.9 1,-4 1.3,-5.1 l -1.6,0.6 c -0.3,1.2 -1.1,3.2 -2.6,3.3 -0.2,0 -0.5,-0.1 -0.5,-0.3 0.2,-1.7 1.2,-9.1 1.3,-9.8 0.1,-0.7 0.3,-1 0.8,-1.2 0.5,-0.2 0.8,0 1.4,0.4 0.4,0.4 1.9,1.7 1.9,1.7 0,0 0.2,-1.2 0.2,-1.6 -0.2,0 -0.4,0 -0.4,0 -0.2,0 -0.4,-0.2 -0.4,-0.4 l 0.2,-1.5 c 0,-0.2 0.1,-0.3 0.2,-0.3 0,0 0.6,-0.3 1.1,-0.5 0.5,-0.2 0.9,-0.2 0.9,-0.2 0.4,0 0.7,0.1 1,0.3 0.3,0.2 0.5,0.6 0.5,1 l 0.3,3.2 c 0,0 1.5,-1.3 1.8,-1.7 0.5,-0.5 0.9,-0.6 1.4,-0.4 0.5,0.2 0.7,0.5 0.8,1.2 0.1,0.7 1.1,8.2 1.3,9.8 0,0.2 -0.3,0.3 -0.5,0.3 -1.5,-0.1 -2.3,-2.1 -2.6,-3.3 l -1.6,-0.6 c 0.3,1.1 1.1,4.2 1.4,5.1 z" id="path1453"/>
          <path d="m 16.9,106.9 c 0.1,0.3 -0.1,0.5 -0.3,0.6 -0.4,0.2 -1.6,0.3 -2,0.1 0,0 -0.6,1.1 -1.5,1.1 -0.9,0 -1.5,-1.1 -1.5,-1.1 -0.4,0.2 -1.6,0.1 -2.1,-0.1 -0.2,-0.1 -0.4,-0.3 -0.3,-0.6 0.2,-0.9 1,-4 1.3,-5.1 l -1.6,0.6 c -0.3,1.2 -1.1,3.2 -2.6,3.3 -0.2,0 -0.5,-0.1 -0.5,-0.3 0.2,-1.7 1.2,-9.1 1.3,-9.8 0.1,-0.7 0.3,-1 0.8,-1.2 0.5,-0.2 0.8,0 1.4,0.4 0.4,0.4 1.9,1.7 1.9,1.7 0,0 0.2,-1.2 0.2,-1.6 -0.2,0 -0.4,0 -0.4,0 -0.2,0 -0.4,-0.2 -0.4,-0.4 L 10.8,93 c 0,-0.2 0.1,-0.3 0.2,-0.3 0,0 0.6,-0.3 1.1,-0.5 C 12.6,92 13,92 13,92 c 0.4,0 0.7,0.1 1,0.3 0.3,0.2 0.5,0.6 0.5,1 l 0.3,3.2 c 0,0 1.4,-1.3 1.8,-1.7 0.5,-0.5 0.9,-0.6 1.4,-0.4 0.5,0.2 0.7,0.5 0.8,1.2 0.1,0.7 1.1,8.2 1.3,9.8 0,0.2 -0.3,0.3 -0.5,0.3 -1.5,-0.1 -2.3,-2.1 -2.6,-3.3 l -1.6,-0.6 c 0.4,1 1.2,4.1 1.5,5.1 z" id="path1455"/>
          <path d="m 34.8,106.9 c 0.1,0.3 -0.1,0.5 -0.3,0.6 -0.4,0.2 -1.6,0.3 -2,0.1 0,0 -0.6,1.1 -1.5,1.1 -0.9,0 -1.5,-1.1 -1.5,-1.1 -0.5,0.2 -1.6,0.1 -2,-0.1 -0.2,-0.1 -0.4,-0.3 -0.3,-0.6 0.2,-0.9 1,-4 1.3,-5.1 l -1.6,0.6 c -0.3,1.2 -1.1,3.2 -2.6,3.3 -0.2,0 -0.5,-0.1 -0.5,-0.3 0.2,-1.7 1.2,-9.1 1.3,-9.8 0.1,-0.7 0.3,-1 0.8,-1.2 0.5,-0.2 0.8,0 1.4,0.4 0.4,0.4 1.9,1.7 1.9,1.7 0,0 0.2,-1.2 0.2,-1.6 -0.2,0 -0.4,0 -0.4,0 -0.2,0 -0.4,-0.2 -0.4,-0.4 L 28.8,93 c 0,-0.2 0.1,-0.3 0.2,-0.3 0,0 0.6,-0.3 1.1,-0.5 C 30.6,92 31,92 31,92 c 0.4,0 0.7,0.1 1,0.3 0.3,0.2 0.5,0.6 0.5,1 l 0.3,3.2 c 0,0 1.5,-1.3 1.8,-1.7 0.5,-0.5 0.9,-0.6 1.4,-0.4 0.5,0.2 0.7,0.5 0.8,1.2 0.1,0.7 1.1,8.2 1.3,9.8 0,0.2 -0.3,0.3 -0.5,0.3 -1.5,-0.1 -2.3,-2.1 -2.6,-3.3 l -1.6,-0.6 c 0.3,1 1.1,4.1 1.4,5.1 z" id="path1457"/>
          <path d="m 73.9,85.7 c 0.1,0.3 -0.1,0.5 -0.3,0.6 -0.4,0.2 -1.6,0.3 -2,0.1 0,0 -0.6,1.1 -1.5,1.1 -0.9,0 -1.5,-1.1 -1.5,-1.1 -0.4,0.2 -1.6,0.1 -2,-0.1 -0.2,-0.1 -0.4,-0.3 -0.3,-0.6 0.2,-0.9 1,-4 1.3,-5.1 L 66,81.2 c -0.3,1.2 -1.1,3.2 -2.6,3.3 -0.2,0 -0.5,-0.1 -0.5,-0.3 0.2,-1.7 1.2,-9.1 1.3,-9.8 0.1,-0.7 0.3,-1 0.8,-1.2 0.5,-0.2 0.8,0 1.4,0.4 0.4,0.4 1.8,1.7 1.8,1.7 0,0 0.2,-1.2 0.2,-1.6 -0.2,0 -0.4,0 -0.4,0 -0.2,0 -0.4,-0.2 -0.4,-0.4 l 0.2,-1.5 c 0,-0.2 0.1,-0.3 0.2,-0.3 0,0 0.6,-0.3 1.2,-0.5 0.5,-0.2 0.9,-0.2 0.9,-0.2 0.4,0 0.7,0.1 1,0.3 0.3,0.2 0.5,0.6 0.5,1 l 0.3,3.2 c 0,0 1.4,-1.3 1.8,-1.7 0.5,-0.5 0.9,-0.6 1.4,-0.4 0.5,0.2 0.7,0.5 0.8,1.2 0.1,0.7 1.1,8.2 1.3,9.8 0,0.2 -0.3,0.3 -0.5,0.3 -1.5,-0.1 -2.3,-2.1 -2.6,-3.3 l -1.6,-0.6 c 0.3,1.1 1.1,4.2 1.4,5.1 z" id="path1459"/>
          <path d="m 91.8,85.7 c 0.1,0.3 -0.1,0.5 -0.3,0.6 -0.4,0.2 -1.6,0.3 -2,0.1 0,0 -0.6,1.1 -1.5,1.1 -0.9,0 -1.5,-1.1 -1.5,-1.1 -0.4,0.2 -1.6,0.1 -2.1,-0.1 -0.2,-0.1 -0.4,-0.3 -0.3,-0.6 0.2,-0.9 1,-4 1.3,-5.1 l -1.6,0.6 c -0.3,1.2 -1.1,3.2 -2.6,3.3 -0.2,0 -0.5,-0.1 -0.5,-0.3 0.2,-1.7 1.2,-9.1 1.3,-9.8 0.1,-0.7 0.3,-1 0.8,-1.2 0.5,-0.2 0.8,0 1.4,0.4 0.4,0.4 1.8,1.7 1.8,1.7 0,0 0.2,-1.2 0.2,-1.6 -0.2,0 -0.4,0 -0.4,0 -0.2,0 -0.4,-0.2 -0.4,-0.4 l 0.2,-1.5 c 0,-0.2 0.1,-0.3 0.2,-0.3 0,0 0.6,-0.3 1.2,-0.5 0.5,-0.2 0.9,-0.2 0.9,-0.2 0.4,0 0.7,0.1 1,0.3 0.3,0.2 0.5,0.6 0.5,1 l 0.3,3.2 c 0,0 1.4,-1.3 1.8,-1.7 0.5,-0.5 0.9,-0.6 1.4,-0.4 0.5,0.2 0.7,0.5 0.8,1.2 0.1,0.7 1.1,8.2 1.3,9.8 0,0.2 -0.3,0.3 -0.5,0.3 -1.5,-0.1 -2.3,-2.1 -2.6,-3.3 l -1.6,-0.6 c 0.5,1.1 1.3,4.2 1.5,5.1 z" id="path1461"/>
          <path d="m 73.9,106.9 c 0.1,0.3 -0.1,0.5 -0.3,0.6 -0.4,0.2 -1.6,0.3 -2,0.1 0,0 -0.6,1.1 -1.5,1.1 -0.9,0 -1.5,-1.1 -1.5,-1.1 -0.4,0.2 -1.6,0.1 -2,-0.1 -0.2,-0.1 -0.4,-0.3 -0.3,-0.6 0.2,-0.9 1,-4 1.3,-5.1 l -1.6,0.6 c -0.3,1.2 -1.1,3.2 -2.6,3.3 -0.2,0 -0.5,-0.1 -0.5,-0.3 0.2,-1.7 1.2,-9.1 1.3,-9.8 0.1,-0.7 0.3,-1 0.8,-1.2 0.5,-0.2 0.8,0 1.4,0.4 0.4,0.4 1.8,1.7 1.8,1.7 0,0 0.2,-1.2 0.2,-1.6 -0.2,0 -0.4,0 -0.4,0 -0.2,0 -0.4,-0.2 -0.4,-0.4 L 67.8,93 c 0,-0.2 0.1,-0.3 0.2,-0.3 0,0 0.6,-0.3 1.2,-0.5 0.5,-0.2 0.9,-0.2 0.9,-0.2 0.4,0 0.7,0.1 1,0.3 0.3,0.2 0.5,0.6 0.5,1 l 0.3,3.2 c 0,0 1.4,-1.3 1.8,-1.7 0.5,-0.5 0.9,-0.6 1.4,-0.4 0.5,0.2 0.7,0.5 0.8,1.2 0.1,0.7 1.1,8.2 1.3,9.8 0,0.2 -0.3,0.3 -0.5,0.3 -1.5,-0.1 -2.3,-2.1 -2.6,-3.3 l -1.6,-0.6 c 0.3,1 1.1,4.1 1.4,5.1 z" id="path1463"/>
          <path d="m 91.8,106.9 c 0.1,0.3 -0.1,0.5 -0.3,0.6 -0.4,0.2 -1.6,0.3 -2,0.1 0,0 -0.6,1.1 -1.5,1.1 -0.9,0 -1.5,-1.1 -1.5,-1.1 -0.4,0.2 -1.6,0.1 -2.1,-0.1 -0.2,-0.1 -0.4,-0.3 -0.3,-0.6 0.2,-0.9 1,-4 1.3,-5.1 l -1.6,0.6 c -0.3,1.2 -1.1,3.2 -2.6,3.3 -0.2,0 -0.5,-0.1 -0.5,-0.3 0.2,-1.7 1.2,-9.1 1.3,-9.8 0.1,-0.7 0.3,-1 0.8,-1.2 0.5,-0.2 0.8,0 1.4,0.4 0.4,0.4 1.8,1.7 1.8,1.7 0,0 0.2,-1.2 0.2,-1.6 -0.2,0 -0.4,0 -0.4,0 -0.2,0 -0.4,-0.2 -0.4,-0.4 L 85.6,93 c 0,-0.2 0.1,-0.3 0.2,-0.3 0,0 0.6,-0.3 1.2,-0.5 0.5,-0.2 0.9,-0.2 0.9,-0.2 0.4,0 0.7,0.1 1,0.3 0.3,0.2 0.5,0.6 0.5,1 l 0.3,3.2 c 0,0 1.4,-1.3 1.8,-1.7 0.5,-0.5 0.9,-0.6 1.4,-0.4 0.5,0.2 0.7,0.5 0.8,1.2 0.1,0.7 1.1,8.2 1.3,9.8 0,0.2 -0.3,0.3 -0.5,0.3 -1.5,-0.1 -2.3,-2.1 -2.6,-3.3 l -1.6,-0.6 c 0.5,1 1.3,4.1 1.5,5.1 z" id="path1465"/>
        </g>
        <g id="g1479">
          <path d="m 50.5,32.2 c 0.8,0 1.4,-0.4 1.8,-1 0.3,0.1 0.6,0.2 1,0.2 1.1,0 2,-0.9 2.2,-2 1.2,0 2.1,-1 2.1,-2.2 0,-0.5 -0.2,-1 -0.5,-1.4 -0.5,-0.6 -2.4,-2.9 -2.5,-3 0,-0.1 0,-1.2 0,-1.2 0,-0.6 -0.5,-1.1 -1,-1.1 0,0 -1,0 -1.1,0 -0.1,-0.1 -1,-1 -1,-1 -0.3,-0.3 -0.6,-0.4 -1,-0.4 -0.4,0 -0.8,0.1 -1,0.4 0,0 -0.9,0.9 -1,1 -0.1,0 -1.1,0 -1.1,0 -0.6,0 -1,0.5 -1,1.1 0,0 0,1.1 0,1.2 0,0 -1.9,2.3 -2.5,3 -0.3,0.4 -0.5,0.9 -0.5,1.4 0,1.2 1,2.1 2.1,2.2 0.1,1.1 1,2 2.2,2 0.4,0 0.7,-0.1 1,-0.2 0.4,0.6 1,1 1.8,1 z" id="path1469"/>
          <path d="m 50.5,64.2 c 0.8,0 1.4,-0.4 1.8,-1 0.3,0.2 0.6,0.2 1,0.2 1.1,0 2,-0.9 2.2,-2 1.2,0 2.1,-1 2.1,-2.2 0,-0.5 -0.2,-1 -0.5,-1.4 -0.5,-0.6 -2.4,-2.9 -2.5,-3 0,-0.1 0,-1.2 0,-1.2 0,-0.6 -0.5,-1.1 -1,-1.1 0,0 -1,0 -1.1,0 -0.1,-0.1 -1,-1 -1,-1 -0.3,-0.3 -0.6,-0.4 -1,-0.4 -0.4,0 -0.8,0.2 -1,0.4 0,0 -0.9,0.9 -1,1 -0.1,0 -1.1,0 -1.1,0 -0.6,0 -1,0.5 -1,1.1 0,0 0,1.1 0,1.2 0,0 -1.9,2.3 -2.5,3 -0.3,0.4 -0.5,0.9 -0.5,1.4 0,1.2 1,2.2 2.1,2.2 0.1,1.1 1,2 2.2,2 0.4,0 0.7,-0.1 1,-0.2 0.4,0.6 1,1 1.8,1 z" id="path1471"/>
          <path d="m 22,64.2 c 0.8,0 1.4,-0.4 1.8,-1 0.3,0.2 0.6,0.2 1,0.2 1.1,0 2,-0.9 2.2,-2 1.2,0 2.1,-1 2.1,-2.2 0,-0.5 -0.2,-1 -0.5,-1.4 -0.5,-0.6 -2.4,-2.9 -2.5,-3 0,-0.1 0,-1.2 0,-1.2 0,-0.6 -0.5,-1.1 -1,-1.1 0,0 -1,0 -1.1,0 -0.1,-0.1 -1,-1 -1,-1 -0.3,-0.3 -0.6,-0.4 -1,-0.4 -0.4,0 -0.8,0.2 -1,0.4 0,0 -0.9,0.9 -1,1 -0.1,0 -1.1,0 -1.1,0 -0.6,0 -1,0.5 -1,1.1 0,0 0,1.1 0,1.2 0,0 -1.9,2.3 -2.4,3 -0.3,0.4 -0.5,0.9 -0.5,1.4 0,1.2 0.9,2.2 2.1,2.2 0.1,1.1 1,2 2.2,2 0.4,0 0.7,-0.1 1,-0.2 0.2,0.6 0.9,1 1.7,1 z" id="path1473"/>
          <path d="m 79,64.2 c 0.8,0 1.4,-0.4 1.8,-1 0.3,0.2 0.7,0.2 1,0.2 1.1,0 2,-0.9 2.2,-2 1.2,0 2.1,-1 2.1,-2.2 0,-0.5 -0.2,-1 -0.5,-1.4 -0.5,-0.6 -2.4,-2.9 -2.4,-3 0,-0.1 0,-1.2 0,-1.2 0,-0.6 -0.5,-1.1 -1.1,-1.1 0,0 -1,0 -1.1,0 -0.1,-0.1 -1,-1 -1,-1 -0.3,-0.3 -0.6,-0.4 -1,-0.4 -0.4,0 -0.8,0.2 -1,0.4 0,0 -0.9,0.9 -1,1 -0.1,0 -1.1,0 -1.1,0 -0.6,0 -1.1,0.5 -1.1,1.1 0,0 0,1.1 0,1.2 0,0 -1.9,2.3 -2.4,3 -0.3,0.4 -0.5,0.9 -0.5,1.4 0,1.2 1,2.2 2.1,2.2 0.1,1.1 1,2 2.2,2 0.4,0 0.7,-0.1 1,-0.2 0.4,0.6 1,1 1.8,1 z" id="path1475"/>
          <path d="m 50.5,96.3 c 0.8,0 1.4,-0.4 1.8,-1 0.3,0.2 0.6,0.2 1,0.2 1.1,0 2,-0.9 2.2,-1.9 1.2,0 2.1,-1 2.1,-2.2 0,-0.5 -0.2,-1 -0.5,-1.4 -0.5,-0.6 -2.4,-2.9 -2.5,-2.9 0,-0.1 0,-1.2 0,-1.2 0,-0.6 -0.5,-1.1 -1,-1.1 0,0 -1,0 -1.1,0 -0.1,-0.1 -1,-1 -1,-1 -0.3,-0.3 -0.6,-0.4 -1,-0.4 -0.4,0 -0.8,0.2 -1,0.4 0,0 -0.9,0.9 -1,1 -0.1,0 -1.1,0 -1.1,0 -0.6,0 -1,0.5 -1,1.1 0,0 0,1.1 0,1.2 0,0 -1.9,2.3 -2.5,2.9 -0.3,0.4 -0.5,0.9 -0.5,1.4 0,1.2 1,2.2 2.1,2.2 0.1,1.1 1,1.9 2.2,1.9 0.4,0 0.7,-0.1 1,-0.2 0.4,0.6 1,1 1.8,1 z" id="path1477"/>
        </g>
        <g id="g1491">
          <path style="fill:#00a4ed" d="m 50.5,31.4 c 0.5,0 0.9,-0.3 1.2,-0.7 l -0.4,-3.9 c 0,-0.1 0.1,-0.3 0.2,-0.3 0.2,0 0.3,0.1 0.3,0.2 l 0.7,3.8 c 0.2,0.1 0.5,0.2 0.7,0.2 0.8,0 1.4,-0.6 1.5,-1.3 l -1.6,-3.8 c -0.1,-0.1 0,-0.3 0.2,-0.4 0.1,-0.1 0.3,0 0.4,0.1 l 1.7,3.4 c 0,0 0,0 0,0 0.8,0 1.5,-0.6 1.5,-1.5 0,-0.3 0,-0.6 -0.2,-0.8 l -2.8,-3.3 v -1.5 c 0,-0.2 -0.1,-0.3 -0.3,-0.3 0,0 -1.4,0 -1.4,0 L 51,20.2 C 50.9,20 50.7,20 50.5,20 50.3,20 50.1,20 50,20.2 l -1.2,1.2 h -1.4 c -0.2,0 -0.3,0.1 -0.3,0.3 v 1.5 l -2.8,3.3 c -0.2,0.2 -0.2,0.5 -0.2,0.8 0,0.8 0.7,1.5 1.5,1.5 0,0 0,0 0,0 l 1.7,-3.4 c 0.1,-0.1 0.2,-0.2 0.4,-0.1 0.2,0.1 0.2,0.2 0.2,0.4 l -1.6,3.8 c 0.1,0.8 0.7,1.3 1.5,1.3 0.3,0 0.5,-0.1 0.7,-0.2 l 0.7,-3.8 c 0,-0.1 0.2,-0.3 0.3,-0.2 0.2,0 0.3,0.2 0.2,0.3 l -0.4,3.9 c 0.3,0.3 0.7,0.6 1.2,0.6 z" id="path1481"/>
          <path style="fill:#00a4ed" d="m 50.5,63.5 c 0.5,0 0.9,-0.3 1.2,-0.7 l -0.4,-3.9 c 0,-0.2 0.1,-0.3 0.2,-0.3 0.2,0 0.3,0.1 0.3,0.2 l 0.7,3.8 c 0.2,0.1 0.5,0.2 0.7,0.2 0.8,0 1.4,-0.6 1.5,-1.3 l -1.6,-3.8 c -0.1,-0.2 0,-0.3 0.2,-0.4 0.1,-0.1 0.3,0 0.4,0.1 l 1.7,3.4 c 0,0 0,0 0,0 0.8,0 1.5,-0.7 1.5,-1.5 0,-0.3 0,-0.6 -0.2,-0.8 l -2.8,-3.3 v -1.5 c 0,-0.2 -0.1,-0.3 -0.3,-0.3 0,0 -1.4,0 -1.4,0 L 51,52.3 c -0.1,-0.1 -0.3,-0.2 -0.5,-0.2 -0.2,0 -0.4,0.1 -0.5,0.2 l -1.2,1.2 h -1.4 c -0.2,0 -0.3,0.1 -0.3,0.3 v 1.5 l -2.8,3.3 c -0.2,0.2 -0.2,0.5 -0.2,0.8 0,0.8 0.7,1.5 1.5,1.5 0,0 0,0 0,0 l 1.7,-3.4 c 0.1,-0.1 0.2,-0.2 0.4,-0.1 0.2,0.1 0.2,0.2 0.2,0.4 l -1.6,3.8 c 0.1,0.8 0.7,1.3 1.5,1.3 0.3,0 0.5,-0.1 0.7,-0.2 l 0.7,-3.8 c 0,-0.2 0.2,-0.3 0.3,-0.2 0.2,0 0.3,0.2 0.2,0.3 l -0.4,3.9 c 0.3,0.3 0.7,0.6 1.2,0.6 z" id="path1483"/>
          <path style="fill:#00a4ed" d="m 22,63.5 c 0.5,0 0.9,-0.3 1.2,-0.7 l -0.4,-3.9 c 0,-0.2 0.1,-0.3 0.2,-0.3 0.2,0 0.3,0.1 0.3,0.2 l 0.7,3.8 c 0.2,0.1 0.5,0.2 0.7,0.2 0.8,0 1.4,-0.6 1.5,-1.3 l -1.6,-3.8 c -0.1,-0.2 0,-0.3 0.1,-0.4 0.1,-0.1 0.3,0 0.4,0.1 l 1.7,3.4 c 0,0 0,0 0,0 0.8,0 1.5,-0.7 1.5,-1.5 0,-0.3 0,-0.6 -0.2,-0.8 l -2.8,-3.3 v -1.5 c 0,-0.2 -0.1,-0.3 -0.3,-0.3 0,0 -1.4,0 -1.4,0 L 22.4,52.2 C 22.3,52.1 22.1,52 21.9,52 c -0.2,0 -0.4,0.1 -0.5,0.2 l -1.2,1.2 c 0,0 -1.4,0 -1.4,0 -0.2,0 -0.3,0.1 -0.3,0.3 v 1.5 l -2.8,3.3 c -0.2,0.2 -0.2,0.5 -0.2,0.8 0,0.8 0.7,1.5 1.5,1.5 0,0 0,0 0,0 l 1.7,-3.4 c 0.1,-0.1 0.2,-0.2 0.4,-0.1 0.1,0.1 0.2,0.2 0.1,0.4 l -1.6,3.8 c 0.1,0.8 0.7,1.3 1.5,1.3 0.3,0 0.5,-0.1 0.7,-0.2 l 0.7,-3.8 c 0,-0.2 0.2,-0.3 0.3,-0.2 0.1,0 0.3,0.2 0.2,0.3 l -0.4,3.9 c 0.4,0.4 0.9,0.7 1.4,0.7 z" id="path1485"/>
          <path style="fill:#00a4ed" d="m 79,63.5 c 0.5,0 0.9,-0.3 1.2,-0.7 l -0.4,-3.9 c 0,-0.2 0.1,-0.3 0.2,-0.3 0.2,0 0.3,0.1 0.3,0.2 l 0.7,3.8 c 0.2,0.1 0.5,0.2 0.7,0.2 0.8,0 1.4,-0.6 1.4,-1.3 l -1.6,-3.8 c -0.1,-0.2 0,-0.3 0.2,-0.4 0.1,-0.1 0.3,0 0.4,0.1 l 1.7,3.4 c 0,0 0,0 0,0 0.8,0 1.5,-0.7 1.5,-1.5 0,-0.3 0,-0.6 -0.2,-0.8 l -2.8,-3.3 v -1.5 c 0,-0.2 -0.1,-0.3 -0.3,-0.3 0,0 -1.4,0 -1.4,0 L 79.4,52.2 C 79.3,52.1 79.1,52 78.9,52 c -0.2,0 -0.4,0.1 -0.5,0.2 l -1.2,1.2 H 76 c -0.2,0 -0.3,0.1 -0.3,0.3 v 1.5 l -2.8,3.3 c -0.2,0.2 -0.2,0.5 -0.2,0.8 0,0.8 0.7,1.5 1.5,1.5 0,0 0,0 0,0 l 1.7,-3.4 c 0.1,-0.1 0.2,-0.2 0.4,-0.1 0.2,0.1 0.2,0.2 0.2,0.4 l -1.6,3.8 c 0.1,0.8 0.7,1.3 1.4,1.3 0.3,0 0.5,-0.1 0.7,-0.2 l 0.7,-3.8 c 0,-0.2 0.2,-0.3 0.3,-0.2 0.2,0 0.3,0.2 0.2,0.3 l -0.4,3.9 c 0.3,0.4 0.7,0.7 1.2,0.7 z" id="path1487"/>
          <path style="fill:#00a4ed" d="m 50.5,95.6 c 0.5,0 0.9,-0.3 1.2,-0.7 L 51.3,91 c 0,-0.2 0.1,-0.3 0.2,-0.3 0.2,0 0.3,0.1 0.3,0.2 l 0.7,3.8 c 0.2,0.1 0.5,0.2 0.7,0.2 0.8,0 1.4,-0.6 1.5,-1.3 l -1.6,-3.8 c -0.1,-0.2 0,-0.3 0.2,-0.4 0.1,-0.1 0.3,0 0.4,0.1 l 1.7,3.4 c 0,0 0,0 0,0 0.8,0 1.5,-0.7 1.5,-1.5 0,-0.3 0,-0.6 -0.2,-0.8 l -2.8,-3.3 v -1.5 c 0,-0.2 -0.1,-0.3 -0.3,-0.3 0,0 -1.4,0 -1.4,0 L 51,84.4 c -0.1,-0.1 -0.3,-0.2 -0.5,-0.2 -0.2,0 -0.4,0.1 -0.5,0.2 l -1.2,1.2 h -1.4 c -0.2,0 -0.3,0.1 -0.3,0.3 v 1.5 l -2.8,3.3 c -0.2,0.2 -0.2,0.5 -0.2,0.8 0,0.8 0.7,1.5 1.5,1.5 0,0 0,0 0,0 l 1.7,-3.4 c 0.1,-0.1 0.2,-0.2 0.4,-0.1 0.2,0.1 0.2,0.2 0.2,0.4 l -1.6,3.8 c 0.1,0.8 0.7,1.3 1.5,1.3 0.3,0 0.5,-0.1 0.7,-0.2 L 49.2,91 c 0,-0.2 0.2,-0.3 0.3,-0.2 0.2,0 0.3,0.2 0.2,0.3 L 49.3,95 c 0.3,0.3 0.7,0.6 1.2,0.6 z" id="path1489"/>
        </g>
        <g id="g1525">
          <path style="fill:#d7d8da" d="m 16.1,21.5 c -0.3,0.1 -0.8,0.1 -1.1,0.1 -0.1,0 -0.1,0 -0.2,0 v 0 l -0.6,-2.8 c -0.1,-0.5 -0.5,-0.5 -0.5,0.1 l 0.3,2.9 c -0.1,0.1 -0.5,0.9 -0.9,0.9 -0.4,0 -0.8,-0.7 -0.9,-0.9 l 0.3,-2.9 C 12.6,18.3 12.1,18.3 12,18.8 l -0.6,2.8 v 0 c -0.1,0 -0.1,0 -0.2,0 -0.3,0 -0.9,0 -1.1,-0.1 0.4,-1.5 1.2,-4.6 1.4,-5.7 0,-0.2 -0.1,-0.4 -0.4,-0.4 0,0 -0.1,0 -0.2,0 -0.4,0.1 -1.4,0.5 -1.7,0.6 L 9.4,13.7 C 9.5,13.1 9,13.1 8.9,13.6 c -0.5,2.1 -0.7,4.8 -2.2,5.8 0.1,-1 1.1,-8.3 1.2,-9.2 0,-0.2 0,-0.4 0.3,-0.5 0.2,-0.1 0.3,0 0.5,0.2 0,0 2.4,2.2 2.4,2.2 0.1,0.1 0.2,0.2 0.4,0.1 0.1,0 0.2,-0.2 0.3,-0.3 L 12.1,9.1 C 12.1,9 12.1,8.9 12,8.8 11.9,8.7 11.8,8.7 11.7,8.7 c 0,0 -0.2,0 -0.4,0 l 0.1,-0.9 c 0.3,-0.1 1,-0.5 1.4,-0.5 v 0 c 0,0 0.1,0 0.1,0 0.2,0 0.4,0.1 0.6,0.2 0.1,0.1 0.2,0.3 0.2,0.5 l 0.4,3.9 c 0,0.1 0.1,0.3 0.3,0.3 0.1,0 0.3,0 0.4,-0.1 0,0 2.4,-2.2 2.4,-2.2 0.2,-0.2 0.3,-0.2 0.5,-0.2 0.3,0.1 0.3,0.3 0.3,0.5 0.1,1 1.1,8.3 1.2,9.2 -1.5,-0.9 -1.7,-3.7 -2.2,-5.8 -0.1,-0.5 -0.6,-0.5 -0.5,0.1 l 0.2,2.3 c -0.3,-0.1 -1.4,-0.5 -1.7,-0.6 -0.1,0 -0.1,0 -0.2,0 -0.3,0 -0.4,0.3 -0.4,0.4 0.5,1.1 1.3,4.3 1.7,5.7 z" id="path1493"/>
          <path style="fill:#d7d8da" d="m 34,21.5 c -0.3,0.1 -0.8,0.1 -1.1,0.1 -0.1,0 -0.2,0 -0.2,0 v 0 L 32,18.8 c -0.1,-0.5 -0.5,-0.5 -0.5,0.1 l 0.3,2.9 c -0.1,0.1 -0.5,0.9 -0.9,0.9 -0.4,0 -0.8,-0.7 -0.9,-0.9 l 0.3,-2.9 c 0,-0.6 -0.4,-0.6 -0.5,-0.1 l -0.6,2.8 v 0 c -0.1,0 -0.1,0 -0.2,0 -0.3,0 -0.9,0 -1.1,-0.1 0.4,-1.5 1.2,-4.6 1.5,-5.7 0,-0.2 -0.1,-0.4 -0.4,-0.4 0,0 -0.1,0 -0.2,0 -0.4,0.1 -1.4,0.5 -1.7,0.6 l 0.2,-2.3 c 0,-0.6 -0.4,-0.6 -0.5,-0.1 -0.5,2.1 -0.7,4.8 -2.2,5.8 0.1,-1 1.1,-8.3 1.2,-9.2 0,-0.2 0,-0.4 0.3,-0.5 0.2,-0.1 0.4,0 0.5,0.2 0,0 2.4,2.2 2.4,2.2 0.1,0.1 0.2,0.2 0.4,0.1 0.1,0 0.2,-0.2 0.3,-0.3 L 30,9.1 C 30,9 30,8.9 29.9,8.8 29.8,8.7 29.7,8.7 29.6,8.7 c 0,0 -0.2,0 -0.4,0 l 0.1,-0.9 c 0.3,-0.1 1,-0.5 1.4,-0.5 v 0 c 0,0 0.1,0 0.1,0 0.2,0 0.4,0.1 0.5,0.2 0.1,0.1 0.2,0.3 0.3,0.5 l 0.4,3.9 c 0,0.1 0.1,0.3 0.3,0.3 0.2,0 0.3,0 0.4,-0.1 0,0 2.4,-2.2 2.4,-2.2 0.2,-0.2 0.3,-0.2 0.5,-0.2 0.3,0.1 0.3,0.3 0.3,0.5 0.1,1 1.1,8.3 1.2,9.2 -1.5,-0.9 -1.7,-3.7 -2.2,-5.8 -0.1,-0.5 -0.6,-0.5 -0.5,0.1 l 0.2,2.3 c -0.4,-0.1 -1.4,-0.5 -1.8,-0.6 -0.1,0 -0.1,0 -0.2,0 -0.3,0 -0.4,0.3 -0.4,0.4 0.6,1.1 1.4,4.3 1.8,5.7 z" id="path1495"/>
          <path style="fill:#d7d8da" d="m 16.1,42.7 c -0.3,0.1 -0.8,0.1 -1.1,0.1 -0.1,0 -0.1,0 -0.2,0 v 0 L 14.2,40 c -0.1,-0.5 -0.5,-0.5 -0.5,0.1 L 14,43 c -0.1,0.2 -0.5,0.9 -0.9,0.9 -0.4,0 -0.8,-0.7 -0.9,-0.9 l 0.3,-2.9 C 12.6,39.5 12.1,39.5 12,40 l -0.6,2.8 v 0 c -0.1,0 -0.1,0 -0.2,0 -0.3,0 -0.9,0 -1.1,-0.1 0.4,-1.5 1.2,-4.6 1.4,-5.7 0,-0.2 -0.1,-0.4 -0.4,-0.4 0,0 -0.1,0 -0.2,0 -0.4,0.1 -1.4,0.5 -1.7,0.7 L 9.4,35 C 9.5,34.4 9,34.4 8.9,34.9 c -0.5,2 -0.7,4.8 -2.2,5.8 0.1,-1 1.1,-8.3 1.2,-9.2 0,-0.2 0,-0.4 0.3,-0.5 0.2,-0.1 0.4,0 0.5,0.2 0,0 2.4,2.2 2.4,2.2 0.1,0.1 0.2,0.2 0.4,0.1 0.1,0 0.2,-0.2 0.3,-0.3 l 0.3,-2.8 c 0,-0.1 0,-0.2 -0.1,-0.3 C 11.9,30 11.8,30 11.7,30 c 0,0 -0.2,0 -0.4,0 l 0.1,-0.9 c 0.3,-0.1 1,-0.5 1.4,-0.5 v 0 c 0,0 0.1,0 0.1,0 0.2,0 0.4,0.1 0.6,0.2 0.1,0.1 0.2,0.3 0.2,0.5 l 0.4,3.9 c 0,0.2 0.1,0.3 0.3,0.3 0.1,0 0.3,0 0.4,-0.1 0,0 2.4,-2.2 2.4,-2.2 0.2,-0.2 0.3,-0.2 0.5,-0.2 0.3,0.1 0.3,0.3 0.3,0.5 0.1,1 1.1,8.3 1.2,9.2 C 17.7,39.8 17.5,37 17,34.9 16.9,34.4 16.4,34.4 16.5,35 l 0.2,2.3 c -0.3,-0.1 -1.4,-0.5 -1.7,-0.7 -0.1,0 -0.1,0 -0.2,0 -0.3,0 -0.4,0.3 -0.4,0.4 0.5,1 1.3,4.2 1.7,5.7 z" id="path1497"/>
          <path style="fill:#d7d8da" d="m 34,42.7 c -0.3,0.1 -0.8,0.1 -1.1,0.1 -0.1,0 -0.2,0 -0.2,0 v 0 L 32,39.9 C 31.9,39.4 31.5,39.4 31.5,40 l 0.3,2.9 c -0.1,0.2 -0.5,0.9 -0.9,0.9 -0.4,0 -0.8,-0.8 -0.9,-0.9 L 30.3,40 c 0,-0.6 -0.4,-0.6 -0.5,-0.1 l -0.6,2.8 v 0 c -0.1,0 -0.1,0 -0.2,0 -0.3,0 -0.9,0 -1.1,-0.1 0.4,-1.5 1.2,-4.6 1.5,-5.7 0,-0.2 -0.1,-0.4 -0.4,-0.4 0,0 -0.1,0 -0.2,0 -0.4,0.1 -1.4,0.5 -1.7,0.7 l 0.2,-2.3 c 0,-0.6 -0.4,-0.6 -0.5,-0.1 -0.5,2 -0.7,4.8 -2.2,5.8 0.1,-1 1.1,-8.3 1.2,-9.2 0,-0.2 0,-0.4 0.3,-0.5 0.2,-0.1 0.4,0 0.5,0.2 0,0 2.4,2.2 2.4,2.2 0.1,0.1 0.2,0.2 0.4,0.1 0.1,0 0.2,-0.2 0.3,-0.3 L 30,30.3 c 0,-0.1 0,-0.2 -0.1,-0.3 -0.1,-0.1 -0.2,-0.1 -0.3,-0.1 0,0 -0.2,0 -0.4,0 L 29.3,29 c 0.3,-0.1 1,-0.5 1.4,-0.5 v 0 c 0,0 0.1,0 0.1,0 0.2,0 0.4,0.1 0.5,0.2 0.1,0.1 0.2,0.3 0.3,0.5 l 0.4,3.9 c 0,0.2 0.1,0.3 0.3,0.3 0.2,0 0.3,0 0.4,-0.1 0,0 2.4,-2.2 2.4,-2.2 0.2,-0.2 0.3,-0.2 0.5,-0.2 0.3,0.1 0.3,0.3 0.3,0.5 0.1,1 1.1,8.3 1.2,9.2 -1.5,-0.9 -1.7,-3.7 -2.2,-5.8 -0.1,-0.5 -0.6,-0.5 -0.5,0.1 l 0.2,2.3 c -0.3,-0.1 -1.4,-0.5 -1.7,-0.7 -0.1,0 -0.1,0 -0.2,0 -0.3,0 -0.4,0.3 -0.4,0.4 0.5,1.1 1.3,4.3 1.7,5.8 z" id="path1499"/>
          <path style="fill:#d7d8da" d="m 73.1,21.5 c -0.3,0.1 -0.8,0.1 -1.1,0.1 -0.1,0 -0.2,0 -0.2,0 v 0 l -0.6,-2.8 c -0.1,-0.5 -0.5,-0.5 -0.5,0.1 l 0.3,2.9 c -0.1,0.1 -0.5,0.9 -0.9,0.9 -0.4,0 -0.8,-0.7 -0.9,-0.9 l 0.3,-2.9 C 69.6,18.3 69.1,18.3 69,18.8 l -0.6,2.8 v 0 c -0.1,0 -0.1,0 -0.2,0 -0.3,0 -0.9,0 -1.1,-0.1 0.4,-1.5 1.2,-4.6 1.4,-5.7 0,-0.2 -0.1,-0.4 -0.4,-0.4 0,0 -0.1,0 -0.2,0 -0.4,0.1 -1.4,0.5 -1.7,0.6 l 0.2,-2.3 c 0.1,-0.6 -0.4,-0.6 -0.5,-0.1 -0.5,2.1 -0.7,4.8 -2.2,5.8 0.1,-1 1.1,-8.3 1.2,-9.2 0,-0.2 0,-0.4 0.3,-0.5 0.2,-0.1 0.3,0 0.5,0.2 0,0 2.4,2.2 2.4,2.2 0.1,0.1 0.2,0.2 0.4,0.1 0.1,0 0.2,-0.2 0.3,-0.3 L 69.1,9.1 C 69.1,9 69.1,8.9 69,8.8 68.9,8.7 68.8,8.7 68.7,8.7 c 0,0 -0.2,0 -0.4,0 l 0.1,-0.9 c 0.3,-0.1 1,-0.5 1.4,-0.5 v 0 c 0,0 0.1,0 0.1,0 0.2,0 0.4,0.1 0.6,0.2 0.2,0.1 0.2,0.3 0.3,0.5 l 0.4,3.9 c 0,0.1 0.1,0.3 0.3,0.3 0.2,0 0.3,0 0.4,-0.1 0,0 2.4,-2.2 2.4,-2.2 0.2,-0.2 0.3,-0.2 0.5,-0.2 0.3,0.1 0.3,0.3 0.3,0.5 0.1,1 1.1,8.3 1.2,9.2 -1.5,-0.9 -1.7,-3.7 -2.2,-5.8 -0.1,-0.5 -0.6,-0.5 -0.5,0.1 l 0.2,2.3 c -0.3,-0.1 -1.4,-0.5 -1.7,-0.6 -0.1,0 -0.2,0 -0.2,0 -0.3,0 -0.4,0.3 -0.4,0.4 0.4,1.1 1.3,4.3 1.6,5.7 z" id="path1501"/>
          <path style="fill:#d7d8da" d="m 91.1,21.5 c -0.3,0.1 -0.8,0.1 -1.1,0.1 -0.1,0 -0.2,0 -0.2,0 v 0 l -0.6,-2.8 c -0.1,-0.5 -0.5,-0.5 -0.5,0.1 l 0.3,2.9 c -0.1,0.1 -0.5,0.9 -0.9,0.9 -0.4,0 -0.8,-0.7 -0.9,-0.9 l 0.3,-2.9 C 87.6,18.3 87.1,18.3 87,18.8 l -0.6,2.8 v 0 c -0.1,0 -0.1,0 -0.2,0 -0.3,0 -0.9,0 -1.1,-0.1 0.4,-1.5 1.2,-4.6 1.4,-5.7 0,-0.2 -0.1,-0.4 -0.4,-0.4 0,0 -0.1,0 -0.2,0 -0.4,0.1 -1.4,0.5 -1.7,0.6 l 0.2,-2.3 c 0.1,-0.6 -0.4,-0.6 -0.5,-0.1 -0.5,2.1 -0.7,4.8 -2.2,5.8 0.1,-1 1.1,-8.3 1.2,-9.2 0,-0.2 0,-0.4 0.3,-0.5 0.2,-0.1 0.3,0 0.5,0.2 0,0 2.4,2.2 2.4,2.2 0.1,0.1 0.2,0.2 0.4,0.1 0.1,0 0.2,-0.2 0.3,-0.3 L 87.1,9.1 C 87.1,9 87.1,8.9 87,8.8 86.9,8.7 86.8,8.7 86.7,8.7 c 0,0 -0.2,0 -0.4,0 l 0.1,-0.9 c 0.3,-0.1 1,-0.5 1.4,-0.5 v 0 c 0,0 0.1,0 0.1,0 0.2,0 0.4,0.1 0.6,0.2 0.2,0.1 0.2,0.3 0.3,0.5 l 0.4,3.9 c 0,0.1 0.1,0.3 0.3,0.3 0.2,0 0.3,0 0.4,-0.1 0,0 2.4,-2.2 2.4,-2.2 0.2,-0.2 0.3,-0.2 0.5,-0.2 0.3,0.1 0.3,0.3 0.3,0.5 0.1,1 1.1,8.3 1.2,9.2 -1.5,-0.9 -1.7,-3.7 -2.2,-5.8 -0.1,-0.5 -0.6,-0.5 -0.5,0.1 l 0.2,2.3 c -0.3,-0.1 -1.4,-0.5 -1.7,-0.6 -0.1,0 -0.1,0 -0.2,0 -0.3,0 -0.4,0.3 -0.4,0.4 0.3,1.1 1.2,4.3 1.6,5.7 z" id="path1503"/>
          <path style="fill:#d7d8da" d="m 73.1,42.7 c -0.3,0.1 -0.8,0.1 -1.1,0.1 -0.1,0 -0.2,0 -0.2,0 v 0 L 71.2,40 c -0.1,-0.5 -0.5,-0.5 -0.5,0.1 L 71,43 c -0.1,0.2 -0.5,0.9 -0.9,0.9 -0.4,0 -0.8,-0.7 -0.9,-0.9 l 0.3,-2.9 C 69.6,39.5 69.1,39.5 69,40 l -0.6,2.8 v 0 c -0.1,0 -0.1,0 -0.2,0 -0.3,0 -0.9,0 -1.1,-0.1 0.4,-1.5 1.2,-4.6 1.4,-5.7 0,-0.2 -0.1,-0.4 -0.4,-0.4 0,0 -0.1,0 -0.2,0 -0.4,0.1 -1.4,0.5 -1.7,0.7 L 66.4,35 c 0.1,-0.6 -0.4,-0.6 -0.5,-0.1 -0.5,2 -0.7,4.8 -2.2,5.8 0.1,-1 1.1,-8.3 1.2,-9.2 0,-0.2 0,-0.4 0.3,-0.5 0.2,-0.1 0.3,0 0.5,0.2 0,0 2.4,2.2 2.4,2.2 0.1,0.1 0.2,0.2 0.4,0.1 0.1,0 0.2,-0.2 0.3,-0.3 l 0.3,-2.8 c 0,-0.1 0,-0.2 -0.1,-0.3 C 68.9,30 68.8,30 68.7,30 c 0,0 -0.2,0 -0.4,0 l 0.1,-0.9 c 0.3,-0.1 1,-0.5 1.4,-0.5 v 0 c 0,0 0.1,0 0.1,0 0.2,0 0.4,0.1 0.6,0.2 0.2,0.1 0.2,0.3 0.3,0.5 l 0.4,3.9 c 0,0.2 0.1,0.3 0.3,0.3 0.2,0 0.3,0 0.4,-0.1 0,0 2.4,-2.2 2.4,-2.2 0.2,-0.2 0.3,-0.2 0.5,-0.2 0.3,0.1 0.3,0.3 0.3,0.5 0.1,1 1.1,8.3 1.2,9.2 C 74.8,39.8 74.6,37 74.1,34.9 74,34.4 73.5,34.4 73.6,35 l 0.2,2.3 c -0.3,-0.1 -1.4,-0.5 -1.7,-0.7 -0.1,0 -0.2,0 -0.2,0 -0.3,0 -0.4,0.3 -0.4,0.4 0.4,1 1.3,4.2 1.6,5.7 z" id="path1505"/>
          <path style="fill:#d7d8da" d="m 91.1,42.7 c -0.3,0.1 -0.8,0.1 -1.1,0.1 -0.1,0 -0.2,0 -0.2,0 v 0 L 89.2,40 c -0.1,-0.5 -0.5,-0.5 -0.5,0.1 L 89,43 c -0.1,0.2 -0.5,0.9 -0.9,0.9 -0.4,0 -0.8,-0.7 -0.9,-0.9 l 0.3,-2.9 C 87.6,39.5 87.1,39.5 87,40 l -0.6,2.8 v 0 c -0.1,0 -0.1,0 -0.2,0 -0.3,0 -0.9,0 -1.1,-0.1 0.4,-1.5 1.2,-4.6 1.4,-5.7 0,-0.2 -0.1,-0.4 -0.4,-0.4 0,0 -0.1,0 -0.2,0 -0.4,0.1 -1.4,0.5 -1.7,0.7 L 84.4,35 c 0.1,-0.6 -0.4,-0.6 -0.5,-0.1 -0.5,2 -0.7,4.8 -2.2,5.8 0.1,-1 1.1,-8.3 1.2,-9.2 0,-0.2 0,-0.4 0.3,-0.5 0.2,-0.1 0.3,0 0.5,0.2 0,0 2.4,2.2 2.4,2.2 0.1,0.1 0.2,0.2 0.4,0.1 0.1,0 0.2,-0.2 0.3,-0.3 l 0.3,-2.8 c 0,-0.1 0,-0.2 -0.1,-0.3 C 86.9,30 86.8,30 86.7,30 c 0,0 -0.2,0 -0.4,0 l 0.1,-0.9 c 0.3,-0.1 1,-0.5 1.4,-0.5 v 0 c 0,0 0.1,0 0.1,0 0.2,0 0.4,0.1 0.6,0.2 0.2,0.1 0.2,0.3 0.3,0.5 l 0.4,3.9 c 0,0.2 0.1,0.3 0.3,0.3 0.2,0 0.3,0 0.4,-0.1 0,0 2.4,-2.2 2.4,-2.2 0.2,-0.2 0.3,-0.2 0.5,-0.2 0.3,0.1 0.3,0.3 0.3,0.5 0.1,1 1.1,8.3 1.2,9.2 C 92.8,39.8 92.6,37 92.1,34.9 92,34.4 91.5,34.4 91.6,35 l 0.2,2.3 c -0.3,-0.1 -1.4,-0.5 -1.7,-0.7 -0.1,0 -0.1,0 -0.2,0 -0.3,0 -0.4,0.3 -0.4,0.4 0.3,1 1.2,4.2 1.6,5.7 z" id="path1507"/>
          <path style="fill:#d7d8da" d="m 16.1,85.7 c -0.3,0.1 -0.8,0.1 -1.1,0.1 -0.1,0 -0.1,0 -0.2,0 v 0 L 14.1,83 C 14,82.5 13.6,82.5 13.6,83.1 l 0.3,2.9 c -0.1,0.2 -0.5,0.9 -0.9,0.9 -0.4,0 -0.8,-0.7 -0.9,-0.9 l 0.3,-2.9 C 12.5,82.5 12,82.5 11.9,83 l -0.6,2.8 v 0 c -0.1,0 -0.1,0 -0.2,0 -0.3,0 -0.9,0 -1.1,-0.1 0.4,-1.5 1.2,-4.6 1.4,-5.7 0,-0.2 -0.1,-0.4 -0.4,-0.4 0,0 -0.1,0 -0.2,0 -0.4,0.1 -1.4,0.5 -1.7,0.7 L 9.4,78 C 9.5,77.4 9,77.4 8.9,77.9 8.4,80 8.2,82.7 6.7,83.7 c 0.1,-1 1.1,-8.3 1.2,-9.2 0,-0.2 0,-0.4 0.3,-0.5 0.2,-0.1 0.4,0 0.5,0.2 0,0 2.4,2.2 2.4,2.2 0.1,0.1 0.2,0.2 0.4,0.1 0.1,-0.1 0.2,-0.2 0.3,-0.3 l 0.3,-2.8 c 0,-0.1 0,-0.2 -0.1,-0.3 C 11.9,73 11.9,73 11.8,73 c 0,0 -0.2,0 -0.4,0 l 0.1,-0.9 c 0.3,-0.1 1,-0.5 1.4,-0.5 v 0 c 0,0 0.1,0 0.1,0 0.2,0 0.4,0.1 0.6,0.2 0.1,0.1 0.2,0.3 0.2,0.5 l 0.4,3.9 c 0,0.2 0.1,0.3 0.3,0.3 0.1,0 0.3,0 0.4,-0.1 0,0 2.4,-2.2 2.4,-2.2 0.2,-0.2 0.3,-0.2 0.5,-0.2 0.3,0.1 0.3,0.3 0.3,0.5 0.1,1 1.1,8.3 1.2,9.2 C 17.8,82.8 17.6,80 17.1,77.9 17,77.4 16.5,77.4 16.6,78 l 0.2,2.3 c -0.3,-0.1 -1.4,-0.5 -1.7,-0.7 -0.1,0 -0.1,0 -0.2,0 -0.3,0 -0.4,0.3 -0.4,0.4 0.4,1.1 1.2,4.3 1.6,5.7 z" id="path1509"/>
          <path style="fill:#d7d8da" d="m 34,85.7 c -0.3,0.1 -0.8,0.1 -1.1,0.1 -0.1,0 -0.2,0 -0.2,0 v 0 L 32,83 c -0.1,-0.5 -0.5,-0.5 -0.5,0.1 l 0.3,2.9 c -0.1,0.2 -0.5,0.9 -0.9,0.9 -0.4,0 -0.8,-0.8 -0.9,-0.9 l 0.3,-2.9 c 0,-0.6 -0.4,-0.6 -0.5,-0.1 l -0.6,2.8 v 0 c -0.1,0 -0.1,0 -0.2,0 -0.3,0 -0.9,0 -1.1,-0.1 0.4,-1.5 1.2,-4.6 1.5,-5.7 0,-0.2 -0.1,-0.4 -0.4,-0.4 0,0 -0.1,0 -0.2,0 -0.4,0.1 -1.4,0.5 -1.7,0.7 L 27.3,78 c 0,-0.6 -0.4,-0.6 -0.5,-0.1 -0.5,2.1 -0.7,4.8 -2.2,5.8 0.1,-1 1.1,-8.3 1.2,-9.2 0,-0.2 0,-0.4 0.3,-0.5 0.2,-0.1 0.4,0 0.5,0.2 0,0 2.4,2.2 2.4,2.2 0.1,0.1 0.2,0.2 0.4,0.1 0.1,-0.1 0.2,-0.2 0.3,-0.3 L 30,73.4 C 30,73.3 30,73.2 29.9,73.1 29.8,73 29.8,73 29.7,73 c 0,0 -0.2,0 -0.4,0 l 0.1,-0.9 c 0.3,-0.1 1,-0.5 1.4,-0.5 v 0 c 0,0 0.1,0 0.1,0 0.2,0 0.4,0.1 0.5,0.2 0.1,0.1 0.2,0.3 0.3,0.5 l 0.4,3.9 c 0,0.2 0.1,0.3 0.3,0.3 0.2,0 0.3,0 0.4,-0.1 0,0 2.4,-2.2 2.4,-2.2 0.2,-0.2 0.3,-0.2 0.5,-0.2 0.3,0.1 0.3,0.3 0.3,0.5 0.1,1 1.1,8.3 1.2,9.2 C 35.7,82.8 35.5,80 35,77.9 34.9,77.4 34.4,77.4 34.5,78 l 0.2,2.3 c -0.3,-0.1 -1.4,-0.5 -1.7,-0.7 -0.1,0 -0.1,0 -0.2,0 -0.3,0 -0.4,0.3 -0.4,0.4 0.4,1.1 1.2,4.3 1.6,5.7 z" id="path1511"/>
          <path style="fill:#d7d8da" d="m 16.1,106.9 c -0.3,0.1 -0.8,0.1 -1.1,0.1 -0.1,0 -0.1,0 -0.2,0 v 0 l -0.6,-2.8 c -0.1,-0.5 -0.5,-0.5 -0.5,0.1 l 0.3,2.9 c -0.1,0.2 -0.5,0.9 -0.9,0.9 -0.4,0 -0.8,-0.7 -0.9,-0.9 l 0.3,-2.9 c 0.1,-0.6 -0.4,-0.6 -0.5,-0.1 l -0.6,2.8 v 0 c -0.1,0 -0.1,0 -0.2,0 -0.3,0 -0.9,0 -1.1,-0.1 0.4,-1.5 1.2,-4.6 1.4,-5.7 0,-0.2 -0.1,-0.4 -0.4,-0.4 0,0 -0.1,0 -0.2,0 -0.4,0.1 -1.4,0.5 -1.7,0.7 L 9.4,99.2 C 9.4,98.5 9,98.5 8.9,99 c -0.5,2.1 -0.7,4.8 -2.2,5.8 0.1,-1 1.1,-8.3 1.2,-9.2 0,-0.2 0,-0.4 0.3,-0.5 0.2,-0.1 0.4,0 0.5,0.2 0,0 2.4,2.2 2.4,2.2 0.1,0.1 0.2,0.2 0.4,0.1 0.1,0 0.2,-0.2 0.3,-0.3 l 0.3,-2.8 c 0,-0.1 0,-0.2 -0.1,-0.3 -0.1,-0.1 -0.2,-0.1 -0.3,-0.1 0,0 -0.2,0 -0.4,0 l 0.1,-0.9 c 0.3,-0.1 1,-0.5 1.4,-0.5 v 0 c 0,0 0.1,0 0.1,0 0.2,0 0.4,0.1 0.6,0.2 0.1,0.1 0.2,0.3 0.2,0.5 l 0.4,3.9 c 0,0.2 0.1,0.3 0.3,0.3 0.1,0 0.3,0 0.4,-0.1 0,0 2.4,-2.2 2.4,-2.2 0.2,-0.2 0.3,-0.2 0.5,-0.2 0.3,0.1 0.3,0.3 0.3,0.5 0.1,1 1.1,8.3 1.2,9.2 -1.5,-0.9 -1.7,-3.7 -2.2,-5.8 -0.1,-0.5 -0.6,-0.5 -0.5,0.1 l 0.2,2.3 c -0.3,-0.1 -1.4,-0.5 -1.7,-0.7 -0.1,0 -0.1,0 -0.2,0 -0.3,0 -0.4,0.3 -0.4,0.4 0.5,1.1 1.3,4.3 1.7,5.8 z" id="path1513"/>
          <path style="fill:#d7d8da" d="m 34,106.9 c -0.3,0.1 -0.8,0.1 -1.1,0.1 -0.1,0 -0.2,0 -0.2,0 v 0 l -0.6,-2.8 c -0.1,-0.5 -0.5,-0.5 -0.5,0.1 l 0.3,2.9 c -0.1,0.2 -0.5,0.9 -0.9,0.9 -0.4,0 -0.8,-0.7 -0.9,-0.9 l 0.3,-2.9 c 0,-0.6 -0.4,-0.6 -0.5,-0.1 l -0.6,2.8 v 0 c -0.1,0 -0.1,0 -0.2,0 -0.3,0 -0.9,0 -1.1,-0.1 0.4,-1.5 1.2,-4.6 1.5,-5.7 0,-0.2 -0.1,-0.4 -0.4,-0.4 0,0 -0.1,0 -0.2,0 -0.4,0.1 -1.4,0.5 -1.7,0.7 l 0.2,-2.3 c 0,-0.6 -0.4,-0.6 -0.5,-0.1 -0.5,2.1 -0.7,4.8 -2.2,5.8 0.1,-1 1.1,-8.3 1.2,-9.2 0,-0.2 0,-0.4 0.3,-0.5 0.2,-0.1 0.4,0 0.5,0.2 0,0 2.4,2.2 2.4,2.2 0.1,0.1 0.2,0.2 0.4,0.1 0.1,0 0.2,-0.2 0.3,-0.3 l 0.3,-2.8 c 0,-0.1 0,-0.2 -0.1,-0.3 -0.1,-0.1 -0.2,-0.1 -0.3,-0.1 0,0 -0.2,0 -0.4,0 l 0.1,-0.9 c 0.3,-0.1 1,-0.5 1.4,-0.5 v 0 c 0,0 0.1,0 0.1,0 0.2,0 0.4,0.1 0.5,0.2 0.1,0.1 0.2,0.3 0.3,0.5 l 0.4,3.9 c 0,0.2 0.1,0.3 0.3,0.3 0.2,0 0.3,0 0.4,-0.1 0,0 2.4,-2.2 2.4,-2.2 0.2,-0.2 0.3,-0.2 0.5,-0.2 0.3,0.1 0.3,0.3 0.3,0.5 0.1,1 1.1,8.3 1.2,9.2 -1.5,-0.9 -1.7,-3.7 -2.2,-5.8 -0.1,-0.5 -0.6,-0.5 -0.5,0.1 l 0.2,2.3 c -0.3,-0.1 -1.4,-0.5 -1.7,-0.7 -0.1,0 -0.1,0 -0.2,0 -0.3,0 -0.4,0.3 -0.4,0.4 0.4,1 1.2,4.2 1.6,5.7 z" id="path1515"/>
          <path style="fill:#d7d8da" d="m 73.1,85.7 c -0.3,0.1 -0.8,0.1 -1.1,0.1 -0.1,0 -0.2,0 -0.2,0 v 0 L 71.2,83 c -0.1,-0.5 -0.5,-0.5 -0.5,0.1 L 71,86 c -0.1,0.2 -0.5,0.9 -0.9,0.9 -0.4,0 -0.8,-0.7 -0.9,-0.9 l 0.3,-2.9 C 69.6,82.5 69.1,82.5 69,83 l -0.6,2.8 v 0 c -0.1,0 -0.1,0 -0.2,0 -0.3,0 -0.9,0 -1.1,-0.1 0.4,-1.5 1.2,-4.6 1.4,-5.7 0,-0.2 -0.1,-0.4 -0.4,-0.4 0,0 -0.1,0 -0.2,0 -0.4,0.1 -1.4,0.5 -1.7,0.7 L 66.4,78 c 0.1,-0.6 -0.4,-0.6 -0.5,-0.1 -0.5,2.1 -0.7,4.8 -2.2,5.8 0.1,-1 1.1,-8.3 1.2,-9.2 0,-0.2 0,-0.4 0.3,-0.5 0.2,-0.1 0.3,0 0.5,0.2 0,0 2.4,2.2 2.4,2.2 0.1,0.1 0.2,0.2 0.4,0.1 0.1,-0.1 0.2,-0.2 0.3,-0.3 l 0.3,-2.8 c 0,-0.1 0,-0.2 -0.1,-0.3 C 68.9,73 68.8,73 68.7,73 c 0,0 -0.2,0 -0.4,0 l 0.1,-0.9 c 0.3,-0.1 1,-0.5 1.4,-0.5 v 0 c 0,0 0.1,0 0.1,0 0.2,0 0.4,0.1 0.6,0.2 0.2,0.1 0.2,0.3 0.3,0.5 l 0.4,3.9 c 0,0.2 0.1,0.3 0.3,0.3 0.2,0 0.3,0 0.4,-0.1 0,0 2.4,-2.2 2.4,-2.2 0.2,-0.2 0.3,-0.2 0.5,-0.2 0.3,0.1 0.3,0.3 0.3,0.5 0.1,1 1.1,8.3 1.2,9.2 C 74.8,82.8 74.6,80 74.1,77.9 74,77.4 73.5,77.4 73.6,78 l 0.2,2.3 c -0.3,-0.1 -1.4,-0.5 -1.7,-0.7 -0.1,0 -0.2,0 -0.2,0 -0.3,0 -0.4,0.3 -0.4,0.4 0.4,1.1 1.3,4.3 1.6,5.7 z" id="path1517"/>
          <path style="fill:#d7d8da" d="m 91.1,85.7 c -0.3,0.1 -0.8,0.1 -1.1,0.1 -0.1,0 -0.2,0 -0.2,0 v 0 L 89.1,83 C 89,82.5 88.6,82.5 88.6,83.1 l 0.3,2.9 c -0.1,0.2 -0.5,0.9 -0.9,0.9 -0.4,0 -0.8,-0.7 -0.9,-0.9 l 0.3,-2.9 C 87.5,82.5 87,82.5 86.9,83 l -0.6,2.8 v 0 c -0.1,0 -0.1,0 -0.2,0 -0.3,0 -0.9,0 -1.1,-0.1 0.4,-1.5 1.2,-4.6 1.4,-5.7 0,-0.2 -0.1,-0.4 -0.4,-0.4 0,0 -0.1,0 -0.2,0 -0.4,0.1 -1.4,0.5 -1.7,0.7 L 84.3,78 c 0.1,-0.6 -0.4,-0.6 -0.5,-0.1 -0.5,2.1 -0.7,4.8 -2.2,5.8 0.1,-1 1.1,-8.3 1.2,-9.2 0,-0.2 0,-0.4 0.3,-0.5 0.2,-0.1 0.3,0 0.5,0.2 0,0 2.4,2.2 2.4,2.2 0.1,0.1 0.2,0.2 0.4,0.1 0.1,-0.1 0.2,-0.2 0.3,-0.3 L 87,73.4 c 0,-0.1 0,-0.2 -0.1,-0.3 -0.1,-0.1 0,-0.1 -0.1,-0.1 0,0 -0.2,0 -0.4,0 l 0.1,-0.9 c 0.3,-0.1 1,-0.5 1.4,-0.5 v 0 c 0,0 0.1,0 0.1,0 0.2,0 0.4,0.1 0.6,0.2 0.2,0.1 0.2,0.3 0.3,0.5 l 0.4,3.9 c 0,0.2 0.1,0.3 0.3,0.3 0.2,0 0.3,0 0.4,-0.1 0,0 2.4,-2.2 2.4,-2.2 0.2,-0.2 0.3,-0.2 0.5,-0.2 0.3,0.1 0.3,0.3 0.3,0.5 0.1,1 1.1,8.3 1.2,9.2 C 92.9,82.8 92.7,80 92.2,77.9 92.1,77.4 91.6,77.4 91.7,78 l 0.2,2.3 c -0.3,-0.1 -1.4,-0.5 -1.7,-0.7 -0.1,0 -0.1,0 -0.2,0 -0.3,0 -0.4,0.3 -0.4,0.4 0.2,1.1 1.1,4.3 1.5,5.7 z" id="path1519"/>
          <path style="fill:#d7d8da" d="m 73.1,106.9 c -0.3,0.1 -0.8,0.1 -1.1,0.1 -0.1,0 -0.2,0 -0.2,0 v 0 l -0.6,-2.8 c -0.1,-0.5 -0.5,-0.5 -0.5,0.1 l 0.3,2.9 c -0.1,0.2 -0.5,0.9 -0.9,0.9 -0.4,0 -0.8,-0.7 -0.9,-0.9 l 0.3,-2.9 c 0.1,-0.6 -0.4,-0.6 -0.5,-0.1 l -0.6,2.8 v 0 c -0.1,0 -0.1,0 -0.2,0 -0.3,0 -0.9,0 -1.1,-0.1 0.4,-1.5 1.2,-4.6 1.4,-5.7 0,-0.2 -0.1,-0.4 -0.4,-0.4 0,0 -0.1,0 -0.2,0 -0.4,0.1 -1.4,0.5 -1.7,0.7 l 0.2,-2.3 c 0.1,-0.6 -0.4,-0.6 -0.5,-0.1 -0.5,2.1 -0.7,4.8 -2.2,5.8 0.1,-1 1.1,-8.3 1.2,-9.2 0,-0.2 0,-0.4 0.3,-0.5 0.2,-0.1 0.3,0 0.5,0.2 0,0 2.4,2.2 2.4,2.2 0.1,0.1 0.2,0.2 0.4,0.1 0.1,0 0.2,-0.2 0.3,-0.3 l 0.3,-2.8 c 0,-0.1 0,-0.2 -0.1,-0.3 -0.1,-0.1 -0.2,-0.1 -0.3,-0.1 0,0 -0.2,0 -0.4,0 l 0.1,-0.9 c 0.3,-0.1 1,-0.5 1.4,-0.5 v 0 c 0,0 0.1,0 0.1,0 0.2,0 0.4,0.1 0.6,0.2 0.2,0.1 0.2,0.3 0.3,0.5 l 0.4,3.9 c 0,0.2 0.1,0.3 0.3,0.3 0.2,0 0.3,0 0.4,-0.1 0,0 2.4,-2.2 2.4,-2.2 0.2,-0.2 0.3,-0.2 0.5,-0.2 0.3,0.1 0.3,0.3 0.3,0.5 0.1,1 1.1,8.3 1.2,9.2 -1.5,-0.9 -1.7,-3.7 -2.2,-5.8 -0.1,-0.5 -0.6,-0.5 -0.5,0.1 l 0.2,2.3 c -0.3,-0.1 -1.4,-0.5 -1.7,-0.7 -0.1,0 -0.2,0 -0.2,0 -0.3,0 -0.4,0.3 -0.4,0.4 0.4,1 1.3,4.2 1.6,5.7 z" id="path1521"/>
          <path style="fill:#d7d8da" d="m 91.1,106.9 c -0.3,0.1 -0.8,0.1 -1.1,0.1 -0.1,0 -0.2,0 -0.2,0 v 0 l -0.6,-2.8 c -0.1,-0.5 -0.5,-0.5 -0.5,0.1 l 0.3,2.9 c -0.1,0.2 -0.5,0.9 -0.9,0.9 -0.4,0 -0.8,-0.7 -0.9,-0.9 l 0.3,-2.9 c 0.1,-0.6 -0.4,-0.6 -0.5,-0.1 l -0.6,2.8 v 0 c -0.1,0 -0.1,0 -0.2,0 -0.3,0 -0.9,0 -1.1,-0.1 0.4,-1.5 1.2,-4.6 1.4,-5.7 0,-0.2 -0.1,-0.4 -0.4,-0.4 0,0 -0.1,0 -0.2,0 -0.4,0.1 -1.4,0.5 -1.7,0.7 l 0.2,-2.3 c 0.1,-0.6 -0.4,-0.6 -0.5,-0.1 -0.5,2.1 -0.7,4.8 -2.2,5.8 0.1,-1 1.1,-8.3 1.2,-9.2 0,-0.2 0,-0.4 0.3,-0.5 0.2,-0.1 0.3,0 0.5,0.2 0,0 2.4,2.2 2.4,2.2 0.1,0.1 0.2,0.2 0.4,0.1 0.1,0 0.2,-0.2 0.3,-0.3 l 0.3,-2.8 c 0,-0.1 0,-0.2 -0.1,-0.3 -0.1,-0.1 -0.2,-0.1 -0.3,-0.1 0,0 -0.2,0 -0.4,0 l 0.1,-0.9 c 0.3,-0.1 1,-0.5 1.4,-0.5 v 0 c 0,0 0.1,0 0.1,0 0.2,0 0.4,0.1 0.6,0.2 0.2,0.1 0.2,0.3 0.3,0.5 l 0.4,3.9 c 0,0.2 0.1,0.3 0.3,0.3 0.2,0 0.3,0 0.4,-0.1 0,0 2.4,-2.2 2.4,-2.2 0.2,-0.2 0.3,-0.2 0.5,-0.2 0.3,0.1 0.3,0.3 0.3,0.5 0.1,1 1.1,8.3 1.2,9.2 -1.5,-0.9 -1.7,-3.7 -2.2,-5.8 -0.1,-0.5 -0.6,-0.5 -0.5,0.1 l 0.2,2.3 c -0.3,-0.1 -1.4,-0.5 -1.7,-0.7 -0.1,0 -0.1,0 -0.2,0 -0.3,0 -0.4,0.3 -0.4,0.4 0.3,1 1.2,4.2 1.6,5.7 z" id="path1523"/>
        </g>
      </g>
    </g>
  </g>
</svg>